<?xml version="1.0" encoding="UTF-8"?>
<!DOCTYPE svg PUBLIC "-//W3C//DTD SVG 1.1//EN" "http://www.w3.org/Graphics/SVG/1.1/DTD/svg11.dtd">
<!-- Creator: CorelDRAW -->
<svg xmlns="http://www.w3.org/2000/svg" xml:space="preserve" width="6.82666in" height="6.82666in" style="shape-rendering:geometricPrecision; text-rendering:geometricPrecision; image-rendering:optimizeQuality; fill-rule:evenodd; clip-rule:evenodd"
viewBox="0 0 6.82666 6.82666"
 xmlns:xlink="http://www.w3.org/1999/xlink">
 <defs>
  <style type="text/css">
   <![CDATA[
    .fil0 {fill:none}
    .fil4 {fill:#616161}
    .fil1 {fill:#6B6B6B}
    .fil3 {fill:#BEBEBE}
    .fil2 {fill:#D7D7D7}
    .fil5 {fill:#616161;fill-rule:nonzero}
   ]]>
  </style>
 </defs>
 <g id="Layer_x0020_1">
  <metadata id="CorelCorpID_0Corel-Layer"/>
  <g id="_487982328">
   <rect id="_487982208" class="fil0" width="6.82666" height="6.82666"/>
   <rect id="_487981776" class="fil0" x="0.853331" y="0.853331" width="5.12" height="5.12"/>
  </g>
  <rect class="fil1" x="1.70667" y="1.35847" width="3.41333" height="4.58667"/>
  <polygon class="fil2" points="5.01333,1.35847 1.81333,1.35847 1.81333,5.83847 4.32416,5.83847 5.01333,5.21341 "/>
  <polygon class="fil3" points="4.29531,5.19847 4.32484,5.83847 5.01333,5.19854 "/>
  <rect class="fil1" x="2.60425" y="1.14514" width="1.61817" height="0.348189"/>
  <path class="fil1" d="M3.41333 0.88152c-0.102252,0 -0.185142,0.0828898 -0.185142,0.185142 0,0.102252 0.0828898,0.185142 0.185142,0.185142 0.102252,0 0.185142,-0.0828898 0.185142,-0.185142 0,-0.102252 -0.0828898,-0.185142 -0.185142,-0.185142zm0 0.102008c-0.0459134,0 -0.0831339,0.0372205 -0.0831339,0.0831339 0,0.0459134 0.0372205,0.0831339 0.0831339,0.0831339 0.0459134,0 0.0831339,-0.0372205 0.0831339,-0.0831339 0,-0.0459134 -0.0372205,-0.0831339 -0.0831339,-0.0831339z"/>
  <rect class="fil4" x="2.88" y="2.42514" width="1.91766" height="0.106669"/>
  <path class="fil5" d="M2.13333 2.19l0.533331 0 0.05 0 0 0.05 0 0.533331 0 0.05 -0.05 0 -0.533331 0 -0.05 0 0 -0.05 0 -0.533331 0 -0.05 0.05 0zm0.483331 0.1l-0.433331 0 0 0.433331 0.433331 0 0 -0.433331z"/>
  <rect class="fil4" x="2.88" y="3.44181" width="1.91766" height="0.106669"/>
  <path class="fil5" d="M2.13333 3.20667l0.533331 0 0.05 0 0 0.05 0 0.533331 0 0.05 -0.05 0 -0.533331 0 -0.05 0 0 -0.05 0 -0.533331 0 -0.05 0.05 0zm0.483331 0.1l-0.433331 0 0 0.433331 0.433331 0 0 -0.433331z"/>
  <rect class="fil4" x="2.88" y="4.45848" width="1.91766" height="0.106669"/>
  <path class="fil5" d="M2.13333 4.22333l0.533331 0 0.05 0 0 0.05 0 0.533331 0 0.05 -0.05 0 -0.533331 0 -0.05 0 0 -0.05 0 -0.533331 0 -0.05 0.05 0zm0.483331 0.1l-0.433331 0 0 0.433331 0.433331 0 0 -0.433331z"/>
 </g>
</svg>
